<svg
    xmlns="http://www.w3.org/2000/svg"
    viewBox="0 0 332 332"
    id="vector">
    <path
        id="path"
        d="M 66.4 0 L 265.6 0 C 283.202 0 300.106 7 312.55 19.45 C 325 31.894 332 48.798 332 66.4 L 332 265.6 C 332 283.202 325 300.106 312.55 312.55 C 300.106 325 283.202 332 265.6 332 L 66.4 332 C 48.798 332 31.894 325 19.45 312.55 C 7 300.106 0 283.202 0 265.6 L 0 66.4 C 0 48.798 7 31.894 19.45 19.45 C 31.894 7 48.798 0 66.4 0"
        fill="none"
        stroke-width="1"/>
    <path
        id="path_1"
        d="M 57.47 183.83 C 57.47 188.954 56.728 193.098 55.244 196.262 C 53.76 199.426 51.688 201.736 49.028 203.192 C 46.34 204.62 43.232 205.334 39.704 205.334 C 36.092 205.334 33.012 204.634 30.464 203.234 C 27.916 201.834 25.97 199.902 24.626 197.438 C 23.282 194.946 22.61 192.09 22.61 188.87 C 22.61 186.658 22.834 184.768 23.282 183.2 C 23.73 181.632 24.5 180.428 25.592 179.588 C 26.684 178.72 28.196 178.272 30.128 178.244 C 29.097 177.856 27.99 177.713 26.894 177.824 C 25.774 177.908 24.654 178.006 23.534 178.118 C 23.506 176.774 23.478 175.248 23.45 173.54 C 23.395 171.874 23.339 170.208 23.282 168.542 C 23.231 167.171 23.203 165.798 23.198 164.426 C 24.066 164.23 25.158 164.076 26.474 163.964 C 27.857 163.848 29.244 163.792 30.632 163.796 C 32.116 163.768 33.572 163.796 35 163.88 C 36.428 163.964 37.702 164.104 38.822 164.3 C 38.962 165.168 39.074 166.26 39.158 167.576 C 39.242 168.892 39.298 170.32 39.326 171.86 L 39.326 176.396 C 39.303 177.769 39.247 179.142 39.158 180.512 C 39.074 181.772 38.962 182.808 38.822 183.62 L 37.1 183.662 L 37.1 185.888 L 42.518 185.888 L 42.518 183.662 L 40.544 183.662 C 40.376 180.414 40.292 177.222 40.292 174.086 C 40.292 170.922 40.376 167.562 40.544 164.006 C 44.38 164.146 47.558 164.916 50.078 166.316 C 52.57 167.688 54.432 169.802 55.664 172.658 C 56.868 175.514 57.47 179.238 57.47 183.83 Z M 56.338 164.69 C 55.4 164.693 54.321 164.58 53.103 164.351 C 51.896 164.096 50.707 163.759 49.546 163.342 C 48.386 162.926 47.45 162.491 46.74 162.037 C 46.768 161.372 46.517 160.665 45.986 159.915 C 45.463 159.139 44.399 158.503 42.794 158.008 C 41.429 157.587 40.323 157.422 39.474 157.512 C 38.635 157.575 37.994 157.758 37.549 158.061 C 37.112 158.336 36.839 158.604 36.73 158.863 C 35.765 158.859 34.664 158.724 33.427 158.46 C 32.186 158.165 30.969 157.776 29.787 157.294 C 28.624 156.788 27.704 156.256 27.027 155.695 C 27.655 154.296 28.251 152.883 28.814 151.456 C 29.402 149.911 29.941 148.347 30.431 146.768 C 31.086 144.654 31.683 142.523 32.221 140.376 C 32.696 138.354 33.053 136.764 33.291 135.607 C 34.554 135.791 35.667 136.076 36.632 136.462 C 37.542 136.825 38.423 137.258 39.266 137.757 C 40.091 138.217 40.956 138.689 41.862 139.173 C 42.845 139.66 43.868 140.064 44.919 140.379 C 43.906 139.1 42.489 137.945 40.667 136.915 C 38.827 135.849 36.454 134.898 33.548 134.06 C 33.832 133.327 34.159 132.549 34.529 131.726 C 34.909 130.876 35.335 129.82 35.81 128.561 C 36.286 127.301 36.82 125.707 37.412 123.78 C 37.898 122.201 38.257 120.891 38.489 119.849 C 38.721 118.807 38.913 117.899 39.063 117.125 C 39.195 116.316 39.356 115.458 39.547 114.55 C 40.175 114.509 40.937 114.554 41.835 114.684 C 42.705 114.806 43.609 115.011 44.545 115.3 C 45.451 115.549 46.341 115.852 47.21 116.209 C 48.023 116.519 48.682 116.854 49.186 117.214 C 49.149 118.668 49.21 119.947 49.369 121.05 C 49.52 122.064 49.757 123.063 50.076 124.037 C 52.316 123.995 54.218 123.571 55.784 122.765 C 57.332 121.924 58.659 120.941 59.766 119.817 C 60.359 119.795 61.078 119.885 61.924 120.087 C 62.778 120.263 63.669 120.508 64.598 120.824 C 65.508 121.104 66.37 121.443 67.185 121.841 C 68 122.239 68.655 122.632 69.152 123.019 C 68.657 124.201 68.148 125.378 67.627 126.549 C 67.055 127.837 66.464 129.472 65.855 131.452 C 65.181 133.647 64.669 135.452 64.322 136.869 C 64.031 138.041 63.757 139.216 63.501 140.396 C 63.349 141.242 63.192 142.087 63.029 142.931 C 62.09 142.554 61.228 142.214 60.442 141.913 C 59.696 141.627 58.942 141.365 58.179 141.128 C 57.148 140.805 56.1 140.54 55.039 140.335 C 54.083 140.154 53.101 140.149 52.143 140.321 C 51.182 140.494 50.165 140.942 49.093 141.666 L 52.705 142.78 L 53.15 141.335 C 53.742 141.313 54.475 141.407 55.348 141.617 C 56.253 141.807 57.146 142.053 58.021 142.354 C 58.922 142.629 59.801 142.973 60.649 143.384 C 61.437 143.773 62.066 144.158 62.535 144.537 L 60.838 148.628 C 60.158 150.348 59.548 152.096 59.008 153.865 C 58.193 156.515 57.588 158.717 57.196 160.471 C 56.877 161.87 56.591 163.277 56.338 164.69 Z"
        fill="#ffffff"
        stroke-width="1"/>
    <path
        id="path_2"
        d="M 85.344 109.981 C 84.19 111.326 83.067 112.697 81.974 114.092 C 81.039 115.334 80.137 116.601 79.269 117.891 C 78.52 119.007 77.782 120.13 77.055 121.261 C 76.349 122.407 75.657 123.562 74.98 124.725 C 74.405 125.708 73.854 126.704 73.327 127.713 C 72.482 127.515 71.505 127.11 70.398 126.499 C 69.307 125.866 68.26 125.16 67.263 124.387 C 66.242 123.597 65.426 122.828 64.816 122.08 C 64.864 121.707 64.824 121.24 64.694 120.68 C 64.58 120.097 64.194 119.415 63.538 118.635 C 62.898 117.832 61.845 116.937 60.382 115.952 C 58.85 114.919 57.561 114.152 56.515 113.649 C 55.469 113.147 54.613 112.84 53.945 112.729 C 53.295 112.593 52.798 112.58 52.455 112.687 C 52.13 112.771 51.9 112.886 51.768 113.033 C 50.845 112.749 49.83 112.302 48.723 111.691 C 47.62 111.049 46.568 110.323 45.577 109.52 C 44.61 108.7 43.884 107.923 43.397 107.191 C 43.998 106.5 44.587 105.799 45.164 105.089 C 45.764 104.346 46.291 103.688 46.744 103.115 C 47.173 102.526 47.434 102.162 47.528 102.023 C 48.496 100.582 49.438 99.156 50.351 97.746 C 51.241 96.321 51.968 95.139 52.531 94.201 C 52.653 94.722 52.926 95.345 53.351 96.07 C 53.79 96.771 54.288 97.41 54.844 97.988 C 55.4 98.566 55.931 98.957 56.434 99.161 C 55.732 98.249 55.189 97.123 54.807 95.785 C 54.417 94.408 54.376 92.861 54.686 91.145 C 54.972 89.414 55.786 87.549 57.13 85.55 C 58.863 82.97 60.865 81.146 63.136 80.076 C 65.406 79.006 67.833 78.683 70.416 79.107 C 73.015 79.507 75.672 80.623 78.389 82.454 C 82.592 85.286 85.292 88.371 86.489 91.71 C 87.663 95.034 87.071 98.45 84.713 101.959 C 83.698 103.47 82.637 104.646 81.532 105.488 C 80.449 106.346 79.333 106.978 78.182 107.384 C 77.031 107.791 75.84 108.075 74.629 108.231 L 74.809 109.467 C 75.998 109.296 77.168 109.016 78.306 108.632 C 79.479 108.229 80.59 107.666 81.607 106.957 C 83.403 108.1 84.649 109.108 85.344 109.981 Z M 68.535 100.732 L 69.8 98.849 L 66.561 96.666 L 65.296 98.549 L 68.536 100.732 Z M 104.436 81.158 C 94.73 89.496 86.488 89.71 79.711 81.8 C 76.013 77.484 74.521 73.266 75.232 69.148 C 75.965 65.011 78.785 60.836 83.691 56.621 C 88.894 52.151 93.531 49.901 97.601 49.875 C 101.674 49.809 105.368 51.711 108.683 55.581 C 112.418 59.941 113.907 64.217 113.149 68.411 C 112.374 72.585 109.469 76.833 104.436 81.158 Z M 94.868 71.216 L 96.588 69.738 L 93.609 66.261 L 91.889 67.739 L 94.868 71.216 Z M 127.893 64.225 C 124.497 65.754 121.601 66.105 119.205 65.28 C 116.798 64.43 114.986 62.65 113.77 59.943 C 113.105 58.462 112.734 56.986 112.657 55.516 C 112.595 54.009 112.915 52.636 113.617 51.399 C 114.334 50.124 115.535 49.107 117.22 48.349 C 118.19 47.912 119.157 47.707 120.121 47.734 C 121.084 47.76 122.248 48.234 123.613 49.155 L 124.202 48.107 C 122.913 47.152 121.452 46.597 119.817 46.443 C 118.171 46.263 116.455 46.406 114.669 46.872 C 114.296 46.518 113.88 45.968 113.422 45.222 C 112.934 44.418 112.498 43.584 112.117 42.724 C 111.711 41.829 111.36 40.91 111.066 39.973 C 110.803 39.047 110.668 38.233 110.659 37.53 C 111.991 37.146 114.096 36.367 116.976 35.193 C 119.856 34.019 123.415 32.478 127.653 30.57 C 130.196 29.431 132.725 28.262 135.24 27.062 C 136.987 26.202 138.727 25.326 140.46 24.436 C 141.87 23.678 143.042 23.043 143.978 22.529 C 144.643 23.121 145.284 23.969 145.902 25.072 C 146.525 26.185 147.062 27.345 147.506 28.541 C 147.946 29.725 148.214 30.801 148.312 31.771 C 148.093 31.9 147.874 32.198 147.654 32.666 C 147.46 33.122 147.389 33.783 147.441 34.65 C 147.506 35.48 147.832 36.547 148.417 37.85 C 149.105 39.382 149.84 40.372 150.624 40.817 C 151.421 41.226 152.135 41.38 152.766 41.281 C 153.302 41.93 153.849 42.804 154.404 43.906 C 154.96 45.007 155.441 46.145 155.842 47.312 C 156.244 48.482 156.488 49.539 156.575 50.482 C 155.927 50.682 155.211 50.897 154.424 51.128 C 153.504 51.433 152.589 51.753 151.679 52.088 C 150.609 52.508 149.295 53.068 147.738 53.77 C 146.009 54.54 144.313 55.38 142.654 56.29 C 141.179 57.107 139.96 57.81 138.996 58.397 C 138.533 57.776 138.011 56.921 137.43 55.831 C 136.82 54.68 136.26 53.503 135.753 52.303 C 135.254 51.053 134.88 49.948 134.632 48.984 L 131.26 41.474 L 129.843 42.113 L 131.736 46.327 C 133.332 48.925 134.321 51.197 134.704 53.144 C 135.101 55.053 135.045 56.706 134.536 58.102 C 134.027 59.498 133.182 60.692 132.001 61.684 C 130.82 62.677 129.45 63.524 127.893 64.224 Z"
        fill="#ffffff"
        stroke-width="1"/>
    <path
        id="path_3"
        d="M 165.501 50.229 C 161.805 50.688 158.934 50.169 156.886 48.674 C 154.836 47.151 153.628 44.917 153.264 41.971 C 153.064 40.36 153.144 38.841 153.504 37.413 C 153.887 35.955 154.597 34.738 155.633 33.763 C 156.694 32.757 158.141 32.14 159.975 31.912 C 161.031 31.781 162.015 31.87 162.928 32.18 C 163.841 32.49 164.814 33.286 165.848 34.569 L 166.719 33.741 C 165.769 32.449 164.535 31.487 163.018 30.857 C 161.498 30.199 159.816 29.83 157.972 29.748 C 157.719 29.3 157.484 28.652 157.266 27.804 C 157.036 26.892 156.865 25.966 156.753 25.032 C 156.629 24.057 156.565 23.076 156.559 22.094 C 156.581 21.132 156.691 20.314 156.89 19.64 C 158.276 19.666 160.518 19.543 163.616 19.271 C 166.714 19 170.569 18.578 175.182 18.005 C 178.433 17.602 181.194 17.231 183.466 16.892 C 185.762 16.522 187.683 16.2 189.228 15.923 C 190.537 15.667 191.845 15.406 193.152 15.14 C 193.613 15.9 193.976 16.9 194.242 18.136 C 194.508 19.373 194.679 20.636 194.753 21.924 C 194.825 23.185 194.764 24.293 194.572 25.248 C 194.326 25.307 194.028 25.527 193.681 25.908 C 193.361 26.287 193.098 26.898 192.892 27.742 C 192.71 28.554 192.707 29.669 192.883 31.086 C 193.089 32.754 193.501 33.916 194.118 34.573 C 194.76 35.199 195.397 35.557 196.029 35.648 C 196.351 36.426 196.615 37.423 196.822 38.638 C 197.029 39.854 197.153 41.081 197.193 42.317 C 197.233 43.553 197.155 44.635 196.96 45.562 C 196.283 45.562 195.534 45.556 194.715 45.545 C 193.926 45.558 192.957 45.594 191.808 45.652 C 190.384 45.766 188.963 45.914 187.546 46.096 C 185.667 46.321 183.799 46.624 181.945 47.003 C 180.295 47.349 178.923 47.66 177.829 47.937 C 177.569 47.207 177.322 46.237 177.087 45.024 C 176.843 43.744 176.655 42.454 176.524 41.158 C 176.414 39.818 176.383 38.65 176.429 37.658 L 175.418 29.488 L 173.876 29.678 L 174.443 34.264 C 175.204 37.217 175.48 39.679 175.273 41.652 C 175.09 43.593 174.55 45.156 173.653 46.339 C 172.755 47.523 171.596 48.414 170.175 49.014 C 168.754 49.614 167.196 50.019 165.501 50.229 Z M 197.361 45.49 C 197.243 44.559 197.223 43.474 197.302 42.237 C 197.408 41.004 197.597 39.787 197.869 38.584 C 198.141 37.381 198.458 36.399 198.821 35.639 C 199.485 35.588 200.14 35.264 200.787 34.669 C 201.438 34.046 201.912 32.908 202.207 31.254 C 202.458 29.848 202.501 28.732 202.336 27.906 C 202.203 27.057 201.987 26.436 201.687 26.04 C 201.388 25.645 201.103 25.41 200.833 25.333 C 200.719 24.373 200.718 23.264 200.83 22.003 C 200.97 20.735 201.209 19.48 201.543 18.249 C 201.902 17.033 202.319 16.055 202.792 15.315 C 204.058 15.713 205.508 16.115 207.142 16.521 C 208.781 16.901 210.565 17.262 212.494 17.608 C 214.245 17.923 216.006 18.182 217.774 18.384 C 219.283 18.561 220.796 18.689 222.313 18.77 C 222.33 20.423 222.141 21.883 221.744 23.148 C 221.341 24.427 220.694 25.615 219.839 26.648 C 218.966 27.714 217.81 28.773 216.371 29.823 L 217.092 30.806 C 218.758 29.596 220.054 28.393 220.979 27.193 C 221.909 25.966 222.564 24.689 222.943 23.363 C 223.354 22.015 223.555 20.572 223.545 19.033 C 224.844 19.409 226.393 19.814 228.192 20.25 C 229.991 20.686 231.856 21.077 233.785 21.423 C 235.714 21.769 237.513 22.048 239.181 22.262 C 240.855 22.448 242.354 22.575 243.679 22.642 C 243.894 23.505 243.947 24.567 243.835 25.827 C 243.722 27.098 243.512 28.358 243.205 29.597 C 242.901 30.822 242.516 31.863 242.05 32.717 C 241.797 32.701 241.448 32.823 241.003 33.085 C 240.586 33.352 240.154 33.857 239.708 34.602 C 239.295 35.325 238.963 36.389 238.712 37.795 C 238.416 39.449 238.467 40.681 238.862 41.491 C 239.29 42.279 239.793 42.81 240.37 43.084 C 240.448 43.923 240.406 44.954 240.244 46.176 C 240.083 47.399 239.838 48.61 239.512 49.8 C 239.185 50.993 238.791 52.003 238.331 52.831 C 237.616 52.608 236.903 52.381 236.191 52.149 C 235.218 51.873 234.24 51.612 233.259 51.368 C 231.769 51.038 230.271 50.741 228.767 50.478 C 226.59 50.088 224.662 49.813 222.984 49.655 C 221.306 49.496 219.889 49.385 218.735 49.32 C 218.745 47.672 218.934 46.212 219.303 44.942 C 219.707 43.663 220.353 42.475 221.208 41.442 C 222.086 40.348 223.242 39.29 224.676 38.267 L 223.956 37.284 C 222.322 38.471 221.026 39.674 220.068 40.897 C 219.138 42.124 218.481 43.415 218.097 44.768 C 217.718 46.094 217.517 47.538 217.494 49.098 C 216.82 48.892 216.066 48.657 215.231 48.394 C 214.217 48.11 213.198 47.842 212.175 47.59 C 210.657 47.255 209.132 46.953 207.601 46.685 C 205.341 46.28 203.358 45.995 201.652 45.832 C 200.224 45.69 198.793 45.576 197.361 45.49 Z"
        fill="#ffffff"
        stroke-width="1"/>
    <path
        id="path_4"
        d="M 237.153 52.236 C 237.317 51.311 237.619 50.27 238.061 49.111 C 238.527 47.969 239.07 46.86 239.686 45.791 C 240.302 44.721 240.896 43.879 241.468 43.261 C 242.117 43.408 242.857 43.288 243.689 42.899 C 244.545 42.524 245.36 41.589 246.132 40.098 C 246.788 38.83 247.148 37.77 247.21 36.919 C 247.297 36.081 247.231 35.416 247.013 34.924 C 246.82 34.445 246.605 34.129 246.369 33.974 C 246.546 33.025 246.874 31.965 247.353 30.794 C 247.864 29.625 248.464 28.497 249.148 27.42 C 249.851 26.365 250.539 25.555 251.21 24.988 C 252.474 25.857 253.758 26.697 255.061 27.508 C 256.475 28.364 257.916 29.175 259.382 29.94 C 261.345 30.963 263.335 31.933 265.35 32.848 C 267.253 33.678 268.752 34.315 269.847 34.758 C 269.442 35.966 268.964 37.012 268.413 37.893 C 267.894 38.724 267.312 39.513 266.671 40.253 C 266.072 40.984 265.454 41.752 264.817 42.557 C 264.217 43.349 263.641 44.281 263.087 45.35 C 264.525 44.582 265.913 43.394 267.25 41.785 C 268.625 40.164 269.983 37.998 271.323 35.287 C 271.993 35.697 272.7 36.159 273.444 36.671 C 274.213 37.196 275.174 37.806 276.328 38.5 C 277.483 39.194 278.954 40.005 280.744 40.934 C 282.21 41.694 283.435 42.283 284.418 42.699 C 285.4 43.114 286.259 43.465 286.994 43.752 C 287.766 44.026 288.581 44.339 289.44 44.69 C 289.369 45.316 289.189 46.059 288.901 46.919 C 288.608 47.799 288.244 48.655 287.813 49.477 C 287.408 50.324 286.951 51.146 286.445 51.937 C 285.997 52.683 285.55 53.271 285.106 53.703 C 283.683 53.406 282.415 53.237 281.301 53.195 C 280.278 53.163 279.253 53.217 278.239 53.356 C 277.882 55.569 277.96 57.518 278.475 59.205 C 279.027 60.879 279.757 62.362 280.664 63.654 C 280.581 64.241 280.365 64.934 280.015 65.73 C 279.691 66.54 279.291 67.373 278.816 68.23 C 278.391 69.055 277.902 69.846 277.355 70.596 C 276.819 71.326 276.316 71.902 275.847 72.321 C 274.88 71.693 273.813 70.981 272.648 70.187 C 271.483 69.393 269.98 68.519 268.141 67.564 C 266.103 66.506 264.419 65.679 263.088 65.084 C 261.988 64.588 260.881 64.107 259.767 63.643 C 258.895 63.317 258.092 63.01 257.357 62.723 C 257.895 61.867 258.382 61.079 258.818 60.359 C 259.267 59.614 259.659 58.918 259.993 58.271 C 260.495 57.314 260.941 56.329 261.331 55.321 C 261.68 54.412 261.859 53.447 261.859 52.473 C 261.861 51.496 261.601 50.414 261.079 49.229 L 259.342 52.586 L 260.684 53.282 C 260.6 53.87 260.378 54.575 260.015 55.396 C 259.691 56.206 259.291 57.039 258.816 57.896 C 258.385 58.734 257.891 59.537 257.336 60.299 C 256.812 61.005 256.323 61.556 255.866 61.949 L 252.145 59.545 C 250.574 58.567 248.965 57.653 247.321 56.805 C 244.861 55.527 242.803 54.538 241.149 53.837 C 239.83 53.273 238.497 52.739 237.153 52.237 Z M 289.055 90.971 C 282.296 90.949 275.702 93.11 270.226 97.14 C 264.751 101.169 260.671 106.865 258.579 113.401 C 256.486 119.937 256.486 126.983 258.579 133.519 C 260.671 140.055 264.751 145.751 270.226 149.78 C 275.702 153.81 282.296 155.971 289.055 155.949 C 295.814 155.971 302.408 153.81 307.884 149.78 C 313.359 145.751 317.439 140.055 319.531 133.519 C 321.624 126.983 321.624 119.937 319.531 113.401 C 317.439 106.865 313.359 101.169 307.884 97.14 C 302.408 93.11 295.814 90.949 289.055 90.971 Z"
        fill="#ffffff"
        stroke-width="1"/>
    <path
        id="path_5"
        d="M 86.8 227.506 C 95.726 228.282 104.534 230.073 113.053 232.845 C 115.653 233.691 118.218 234.628 120.742 235.649 C 117.937 241.68 115.333 247.801 112.933 254.004 C 111.627 253.866 110.308 253.914 109.015 254.146 C 107.018 254.501 105.057 255.277 103.245 256.429 C 101.4 257.613 99.779 259.115 98.458 260.864 C 97.105 262.646 96.065 264.645 95.381 266.775 C 94.703 268.869 94.399 271.065 94.481 273.264 C 94.571 275.42 95.051 277.486 95.898 279.342 C 96.745 281.198 97.94 282.81 99.415 284.084 C 100.466 284.992 101.659 285.723 102.945 286.247 C 102.985 286.364 103.038 286.478 103.106 286.583 C 103.326 286.916 103.668 287.148 104.058 287.23 C 104.448 287.312 104.855 287.236 105.19 287.019 C 105.355 286.911 105.496 286.772 105.607 286.609 C 105.717 286.446 105.795 286.263 105.834 286.07 C 106.45 283.205 107.244 280.176 108.066 277.235 C 112.033 263.349 117.051 249.765 123.017 236.599 C 133.642 241.157 143.525 247.28 152.339 254.762 C 163.826 264.527 173.231 276.418 180.015 289.752 C 184.159 297.894 187.289 306.513 189.335 315.417 C 156.219 327.583 119.857 336.163 98.359 329.893 L 98.065 322.577 C 99.977 321.821 101.81 320.88 103.538 319.767 L 104.676 319.034 C 105.009 318.818 105.243 318.478 105.326 318.09 C 105.409 317.702 105.335 317.296 105.12 316.963 C 104.905 316.629 104.566 316.394 104.178 316.31 C 103.79 316.225 103.384 316.298 103.05 316.512 L 101.913 317.246 C 100.308 318.28 98.603 319.15 96.824 319.844 L 96.609 319.927 C 94.801 318.955 93.162 317.697 91.756 316.201 L 91.391 315.813 C 91.118 315.525 90.742 315.356 90.345 315.344 C 89.948 315.333 89.563 315.479 89.274 315.751 C 88.985 316.023 88.815 316.399 88.802 316.795 C 88.789 317.192 88.934 317.578 89.205 317.868 L 89.569 318.256 C 91.163 319.952 93.016 321.385 95.059 322.5 L 95.315 328.866 C 88.223 326.119 83.111 321.436 80.785 314.314 C 74.189 294.098 75.816 261.98 86.801 227.506 Z M 170.219 108.598 C 214.676 81.976 276.823 105.743 300.094 154.268 C 323.362 202.793 304.924 258.55 254.487 284.324 C 245.174 290.604 229.251 298.956 210.689 306.915 C 210.358 306.214 210.144 305.463 210.056 304.693 C 209.745 302.189 210.429 298.851 212.356 294.73 C 216.023 286.892 223.041 277.812 233.489 268.037 L 233.508 268.057 L 235.702 266.012 C 233.941 264.155 232.327 262.165 230.875 260.058 C 216.171 239.36 220.79 208.378 239.607 191.18 C 254.999 176.184 279.68 171.049 299.576 180.138 C 301.976 181.215 304.289 182.477 306.493 183.913 C 304.313 182.433 302.021 181.125 299.637 180.002 C 279.872 170.5 254.726 175.107 238.664 190.165 C 219.083 207.375 213.388 239.397 228.515 261.655 C 229.453 263.072 230.459 264.443 231.531 265.762 C 220.877 275.717 213.539 285.126 209.641 293.457 C 207.598 297.824 206.672 301.765 207.082 305.064 C 207.218 306.158 207.5 307.17 207.925 308.089 C 202.714 310.282 197.462 312.374 192.17 314.364 C 190.067 305.356 186.883 296.635 182.688 288.391 C 179.137 281.416 174.889 274.819 170.008 268.7 C 170.192 268.588 170.355 268.438 170.477 268.256 C 173.247 264.07 175.96 259.695 178.577 255.344 C 190.171 235.892 200.713 215.752 208.207 194.29 C 214.653 174.274 223.109 144.802 200.674 131.083 C 171.936 118.52 145.898 143.254 127.273 161.95 C 114.793 175.37 104.229 190.438 95.091 206.262 C 94.557 207.193 94.028 208.128 93.504 209.065 C 108.366 172.746 133.516 135.704 170.219 108.598 Z M 138.868 290.415 C 138.735 290.405 138.602 290.446 138.497 290.528 C 138.39 290.614 138.31 290.728 138.265 290.858 C 138.101 291.306 137.93 291.742 137.753 292.167 C 137.311 293.227 136.802 294.258 136.231 295.254 C 135.937 295.766 135.622 296.265 135.287 296.751 C 134.842 297.398 134.322 297.989 133.736 298.511 C 132.803 299.347 131.69 299.958 130.484 300.295 C 129.254 300.624 127.965 300.665 126.717 300.414 C 125.352 300.15 124.015 299.565 122.8 298.746 C 121.831 298.088 120.949 297.311 120.173 296.433 C 119.866 296.09 119.575 295.734 119.299 295.365 C 119.213 295.249 119.089 295.167 118.948 295.135 C 118.808 295.103 118.66 295.127 118.538 295.203 C 118.415 295.279 118.327 295.399 118.293 295.539 C 118.258 295.68 118.276 295.828 118.342 295.957 C 118.565 296.399 118.811 296.833 119.079 297.255 C 119.782 298.369 120.637 299.379 121.619 300.257 C 122.889 301.384 124.415 302.292 126.12 302.795 C 127.708 303.267 129.454 303.367 131.128 303.011 C 132.803 302.66 134.381 301.858 135.674 300.761 C 136.465 300.088 137.164 299.313 137.753 298.458 C 138.18 297.838 138.535 297.172 138.81 296.471 C 139.316 295.186 139.547 293.822 139.523 292.485 C 139.514 291.972 139.468 291.461 139.386 290.955 C 139.365 290.82 139.306 290.693 139.216 290.59 C 139.126 290.49 139.002 290.428 138.868 290.415 Z M 200.651 133.442 C 220.004 146.149 212.434 173.966 205.887 193.484 C 198.351 214.629 187.743 234.596 176.096 253.843 C 173.513 258.076 170.811 262.365 168.115 266.388 C 163.9 261.373 159.273 256.719 154.282 252.476 C 145.26 244.815 135.144 238.544 124.269 233.872 C 129.559 222.508 135.537 211.476 142.169 200.839 C 156.618 177.815 174.059 156.597 194.462 138.588 C 196.447 136.857 198.566 135.065 200.651 133.442 Z M 128.337 162.949 C 146.807 144.39 173.246 120.781 199.617 132.804 C 197.592 134.361 195.577 136.033 193.665 137.665 C 172.965 155.567 155.223 176.707 140.436 199.743 C 133.629 210.421 127.48 221.504 122.022 232.93 C 111.07 228.486 99.524 225.673 87.755 224.581 C 88.595 222.054 89.485 219.516 90.427 216.971 C 92.197 213.551 94.097 210.154 96.043 206.813 C 105.247 191.114 115.868 176.18 128.337 162.949 Z"
        fill="#ffffff"
        stroke-width="1"
        fill-rule="evenodd"/>
    <path
        id="path_6"
        d="M 200.675 133.457 C 204.668 135.956 208.162 139.955 210.158 144.453 C 210.158 144.453 214.152 151.951 212.654 165.947 C 212.654 165.947 212.155 172.944 209.16 182.941 C 209.16 182.941 207.164 190.938 203.17 200.935 L 195.683 217.93 C 195.683 217.93 188.196 233.425 183.704 240.922 C 182.506 242.922 174.22 257.107 174.22 256.917 C 174.22 256.417 175.218 256.417 178.411 210.671 C 181.605 164.926 200.675 133.457 200.675 133.457 Z"
        fill="#ffced5"
        stroke-width="1"/>
</svg>
