<svg xmlns="http://www.w3.org/2000/svg" width="310" height="332" fill="none" viewBox="0 0 310 332">
  <path fill="#fff" d="M46.47 183.83c0 5.124-.742 9.268-2.226 12.432-1.484 3.164-3.556 5.474-6.216 6.93-2.688 1.428-5.796 2.142-9.324 2.142-3.612 0-6.692-.7-9.24-2.1-2.548-1.4-4.494-3.332-5.838-5.796-1.344-2.492-2.016-5.348-2.016-8.568 0-2.212.224-4.102.672-5.67.448-1.568 1.218-2.772 2.31-3.612 1.092-.868 2.604-1.316 4.536-1.344a7.136 7.136 0 0 0-3.234-.42c-1.12.084-2.24.182-3.36.294-.028-1.344-.056-2.87-.084-4.578a2953.56 2953.56 0 0 0-.168-4.998 122.571 122.571 0 0 1-.084-4.116c.868-.196 1.96-.35 3.276-.462a48.14 48.14 0 0 1 4.158-.168c1.484-.028 2.94 0 4.368.084 1.428.084 2.702.224 3.822.42.14.868.252 1.96.336 3.276.084 1.316.14 2.744.168 4.284v4.536a86.776 86.776 0 0 1-.168 4.116c-.084 1.26-.196 2.296-.336 3.108l-1.722.042v2.226h5.418v-2.226h-1.974c-.168-3.248-.252-6.44-.252-9.576 0-3.164.084-6.524.252-10.08 3.836.14 7.014.91 9.534 2.31 2.492 1.372 4.354 3.486 5.586 6.342 1.204 2.856 1.806 6.58 1.806 11.172Zm-1.132-19.14c-.938.003-2.017-.11-3.235-.339a27.094 27.094 0 0 1-3.557-1.009c-1.16-.416-2.096-.851-2.806-1.305.028-.665-.223-1.372-.754-2.122-.523-.776-1.587-1.412-3.192-1.907-1.365-.421-2.471-.586-3.32-.496-.839.063-1.48.246-1.925.549-.437.275-.71.543-.819.802-.965-.004-2.066-.139-3.303-.403a24.853 24.853 0 0 1-3.64-1.166c-1.163-.506-2.083-1.038-2.76-1.599a100.085 100.085 0 0 0 1.787-4.239 78.747 78.747 0 0 0 1.617-4.688 121.8 121.8 0 0 0 1.79-6.392c.475-2.022.832-3.612 1.07-4.769 1.263.184 2.376.469 3.341.855a18.96 18.96 0 0 1 2.634 1.295c.825.46 1.69.932 2.596 1.416a19.46 19.46 0 0 0 3.057 1.206c-1.013-1.279-2.43-2.434-4.252-3.464-1.84-1.066-4.213-2.017-7.119-2.855.284-.733.611-1.511.981-2.334.38-.85.806-1.906 1.281-3.165.476-1.26 1.01-2.854 1.602-4.781.486-1.579.845-2.889 1.077-3.931.232-1.042.424-1.95.574-2.724.132-.809.293-1.667.484-2.575.628-.041 1.39.004 2.288.134.87.122 1.774.327 2.71.616a23.11 23.11 0 0 1 2.665.909c.813.31 1.472.645 1.976 1.005-.037 1.454.024 2.733.183 3.836a18.19 18.19 0 0 0 .707 2.987c2.24-.042 4.142-.466 5.708-1.272 1.548-.841 2.875-1.824 3.982-2.948.593-.022 1.312.068 2.158.27.854.176 1.745.421 2.674.737.91.28 1.772.619 2.587 1.017.815.398 1.47.791 1.967 1.178a176.064 176.064 0 0 1-1.525 3.53c-.572 1.288-1.163 2.923-1.772 4.903-.674 2.195-1.186 4-1.533 5.417a122.433 122.433 0 0 0-.821 3.527 196.74 196.74 0 0 1-.472 2.535c-.939-.377-1.801-.717-2.587-1.018a37.208 37.208 0 0 0-2.263-.785 28.582 28.582 0 0 0-3.14-.793 7.986 7.986 0 0 0-2.896-.014c-.961.173-1.978.621-3.05 1.345l3.612 1.114.445-1.445c.592-.022 1.325.072 2.198.282a22.23 22.23 0 0 1 2.673.737 18.21 18.21 0 0 1 2.628 1.03c.788.389 1.417.774 1.886 1.153l-1.697 4.091a69.134 69.134 0 0 0-1.83 5.237c-.815 2.65-1.42 4.852-1.812 6.606a92.606 92.606 0 0 0-.858 4.219Z"/>
  <path fill="#fff" d="M74.344 109.981a118.73 118.73 0 0 0-3.37 4.111 87.536 87.536 0 0 0-2.705 3.799 204.766 204.766 0 0 0-2.214 3.37 162.854 162.854 0 0 0-2.075 3.464 71.146 71.146 0 0 0-1.653 2.988c-.845-.198-1.822-.603-2.929-1.214a28.302 28.302 0 0 1-3.135-2.112c-1.021-.79-1.837-1.559-2.447-2.307.048-.373.008-.84-.122-1.4-.114-.583-.5-1.265-1.156-2.045-.64-.803-1.693-1.698-3.156-2.683-1.532-1.033-2.821-1.8-3.867-2.303-1.046-.502-1.902-.809-2.57-.92-.65-.136-1.147-.149-1.49-.042-.325.084-.555.199-.687.346-.923-.284-1.938-.731-3.045-1.342a24.847 24.847 0 0 1-3.146-2.171c-.967-.82-1.693-1.597-2.18-2.329a83.242 83.242 0 0 0 1.767-2.102c.6-.743 1.127-1.401 1.58-1.974.429-.589.69-.953.784-1.092.968-1.441 1.91-2.867 2.823-4.277.89-1.425 1.617-2.607 2.18-3.545.122.521.395 1.144.82 1.869.439.701.937 1.34 1.493 1.918.556.578 1.087.969 1.59 1.173-.702-.912-1.245-2.038-1.627-3.376-.39-1.377-.431-2.924-.121-4.64.286-1.731 1.1-3.596 2.444-5.595 1.733-2.58 3.735-4.404 6.006-5.474 2.27-1.07 4.697-1.393 7.28-.969 2.599.4 5.256 1.516 7.973 3.347 4.203 2.832 6.903 5.917 8.1 9.256 1.174 3.324.582 6.74-1.776 10.249-1.015 1.511-2.076 2.687-3.181 3.529-1.083.858-2.199 1.49-3.35 1.896a17.27 17.27 0 0 1-3.553.847l.18 1.236a19.75 19.75 0 0 0 3.497-.835 13.373 13.373 0 0 0 3.301-1.675c1.796 1.143 3.042 2.151 3.737 3.024Zm-16.809-9.249 1.265-1.883-3.239-2.183-1.265 1.883 3.24 2.183Zm35.901-19.574c-9.706 8.338-17.948 8.552-24.725.642-3.698-4.316-5.19-8.534-4.479-12.652.733-4.137 3.553-8.312 8.459-12.527 5.203-4.47 9.84-6.72 13.91-6.746 4.073-.066 7.767 1.836 11.082 5.706 3.735 4.36 5.224 8.636 4.466 12.83-.775 4.174-3.68 8.422-8.713 12.747Zm-9.568-9.942 1.72-1.478-2.979-3.477-1.72 1.478 2.979 3.477Zm33.025-6.991c-3.396 1.529-6.292 1.88-8.688 1.055-2.407-.85-4.219-2.63-5.435-5.337-.665-1.481-1.036-2.957-1.113-4.427-.062-1.507.258-2.88.96-4.117.717-1.275 1.918-2.292 3.603-3.05.97-.437 1.937-.642 2.901-.615.963.026 2.127.5 3.492 1.421l.589-1.048c-1.289-.955-2.75-1.51-4.385-1.664-1.646-.18-3.362-.037-5.148.429-.373-.354-.789-.904-1.247-1.65a22.005 22.005 0 0 1-1.305-2.498 24.271 24.271 0 0 1-1.051-2.751c-.263-.926-.398-1.74-.407-2.443 1.332-.384 3.437-1.163 6.317-2.337 2.88-1.174 6.439-2.715 10.677-4.623a347.614 347.614 0 0 0 7.587-3.508 343.057 343.057 0 0 0 5.22-2.626c1.41-.758 2.582-1.393 3.518-1.907.665.592 1.306 1.44 1.924 2.543a24.754 24.754 0 0 1 1.604 3.469c.44 1.184.708 2.26.806 3.23-.219.129-.438.427-.658.895-.194.456-.265 1.117-.213 1.984.065.83.391 1.897.976 3.2.688 1.532 1.423 2.522 2.207 2.967.797.409 1.511.563 2.142.464.536.649 1.083 1.523 1.638 2.625a27.188 27.188 0 0 1 1.438 3.406c.402 1.17.646 2.227.733 3.17-.648.2-1.364.415-2.151.646a87.35 87.35 0 0 0-2.745.96c-1.07.42-2.384.98-3.941 1.682a68.72 68.72 0 0 0-5.084 2.52c-1.475.817-2.694 1.52-3.658 2.107-.463-.621-.985-1.476-1.566-2.566a44.612 44.612 0 0 1-1.677-3.528c-.499-1.25-.873-2.355-1.121-3.319l-3.372-7.51-1.417.639 1.893 4.214c1.596 2.598 2.585 4.87 2.968 6.817.397 1.909.341 3.562-.168 4.958-.509 1.396-1.354 2.59-2.535 3.582-1.181.993-2.551 1.84-4.108 2.54Z"/>
  <path fill="#fff" d="M154.501 50.229c-3.696.459-6.567-.06-8.615-1.555-2.05-1.523-3.258-3.757-3.622-6.703-.2-1.611-.12-3.13.24-4.558.383-1.458 1.093-2.675 2.129-3.65 1.061-1.006 2.508-1.623 4.342-1.851 1.056-.131 2.04-.042 2.953.268.913.31 1.886 1.106 2.92 2.389l.871-.828c-.95-1.292-2.184-2.254-3.701-2.884-1.52-.658-3.202-1.027-5.046-1.109-.253-.448-.488-1.096-.706-1.944a22.027 22.027 0 0 1-.513-2.772 24.435 24.435 0 0 1-.194-2.938c.022-.962.132-1.78.331-2.454 1.386.026 3.628-.097 6.726-.369 3.098-.271 6.953-.693 11.566-1.266 3.251-.403 6.012-.774 8.284-1.113 2.296-.37 4.217-.692 5.762-.969a477.41 477.41 0 0 0 3.924-.783c.461.76.824 1.76 1.09 2.996.266 1.237.437 2.5.511 3.788.072 1.261.011 2.369-.181 3.324-.246.059-.544.279-.891.66-.32.379-.583.99-.789 1.834-.182.812-.185 1.927-.009 3.344.206 1.668.618 2.83 1.235 3.487.642.626 1.279.984 1.911 1.075.322.778.586 1.775.793 2.99.207 1.216.331 2.443.371 3.679.04 1.236-.038 2.318-.233 3.245-.677 0-1.426-.006-2.245-.017-.789.013-1.758.049-2.907.107a90.754 90.754 0 0 0-4.262.444 68.903 68.903 0 0 0-5.601.907c-1.65.346-3.022.657-4.116.934-.26-.73-.507-1.7-.742-2.913a44.66 44.66 0 0 1-.563-3.866c-.11-1.34-.141-2.508-.095-3.5l-1.011-8.17-1.542.19.567 4.586c.761 2.953 1.037 5.415.83 7.388-.183 1.941-.723 3.504-1.62 4.687-.898 1.184-2.057 2.075-3.478 2.675-1.421.6-2.979 1.005-4.674 1.215Zm31.86-4.739c-.118-.931-.138-2.016-.059-3.253.106-1.233.295-2.45.567-3.653.272-1.203.589-2.185.952-2.945.664-.051 1.319-.375 1.966-.97.651-.623 1.125-1.761 1.42-3.415.251-1.406.294-2.522.129-3.348-.133-.849-.349-1.47-.649-1.866-.299-.395-.584-.63-.854-.707-.114-.96-.115-2.069-.003-3.33a24.72 24.72 0 0 1 .713-3.754c.359-1.216.776-2.194 1.249-2.934 1.266.398 2.716.8 4.35 1.206 1.639.38 3.423.741 5.352 1.087a82.73 82.73 0 0 0 5.28.776 71.63 71.63 0 0 0 4.539.386c.017 1.653-.172 3.113-.569 4.378a10.384 10.384 0 0 1-1.905 3.5c-.873 1.066-2.029 2.125-3.468 3.175l.721.983c1.666-1.21 2.962-2.413 3.887-3.613.93-1.227 1.585-2.504 1.964-3.83.411-1.348.612-2.791.602-4.33 1.299.376 2.848.781 4.647 1.217 1.799.436 3.664.827 5.593 1.173 1.929.346 3.728.625 5.396.839 1.674.186 3.173.313 4.498.38.215.863.268 1.925.156 3.185a24.825 24.825 0 0 1-.63 3.77c-.304 1.225-.689 2.266-1.155 3.12-.253-.016-.602.106-1.047.368-.417.267-.849.772-1.295 1.517-.413.723-.745 1.787-.996 3.193-.296 1.654-.245 2.886.15 3.696.428.788.931 1.319 1.508 1.593.078.839.036 1.87-.126 3.092a27.056 27.056 0 0 1-.732 3.624c-.327 1.193-.721 2.203-1.181 3.031a179.55 179.55 0 0 1-2.14-.682 93.454 93.454 0 0 0-2.932-.781 101.833 101.833 0 0 0-4.492-.89c-2.177-.39-4.105-.665-5.783-.823-1.678-.159-3.095-.27-4.249-.335.01-1.648.199-3.108.568-4.378a10.402 10.402 0 0 1 1.905-3.5c.878-1.094 2.034-2.152 3.468-3.175l-.72-.983c-1.634 1.187-2.93 2.39-3.888 3.613-.93 1.227-1.587 2.518-1.971 3.871-.379 1.326-.58 2.77-.603 4.33-.674-.206-1.428-.441-2.263-.704a98.77 98.77 0 0 0-3.056-.804 106.227 106.227 0 0 0-4.574-.905c-2.26-.405-4.243-.69-5.949-.853a111.868 111.868 0 0 0-4.291-.342Z"/>
  <path fill="#fff" d="M226.153 52.236c.164-.925.466-1.966.908-3.125a27.178 27.178 0 0 1 1.625-3.32c.616-1.07 1.21-1.912 1.782-2.53.649.147 1.389.027 2.221-.362.856-.375 1.671-1.31 2.443-2.801.656-1.268 1.016-2.328 1.078-3.179.087-.838.021-1.503-.197-1.995-.193-.479-.408-.795-.644-.95.177-.949.505-2.009.984-3.18a24.855 24.855 0 0 1 1.795-3.374c.703-1.055 1.391-1.865 2.062-2.432a100.98 100.98 0 0 0 3.851 2.52 78.71 78.71 0 0 0 4.321 2.432 121.857 121.857 0 0 0 5.968 2.908c1.903.83 3.402 1.467 4.497 1.91-.405 1.208-.883 2.254-1.434 3.135a18.927 18.927 0 0 1-1.742 2.36c-.599.731-1.217 1.499-1.854 2.304-.6.792-1.176 1.724-1.73 2.793 1.438-.768 2.826-1.956 4.163-3.565 1.375-1.621 2.733-3.787 4.073-6.498.67.41 1.377.872 2.121 1.384.769.525 1.73 1.135 2.884 1.829 1.155.694 2.626 1.505 4.416 2.434 1.466.76 2.691 1.349 3.674 1.765.982.415 1.841.766 2.576 1.053.772.274 1.587.587 2.446.938-.071.626-.251 1.369-.539 2.229a17.286 17.286 0 0 1-1.088 2.558 22.878 22.878 0 0 1-1.368 2.46c-.448.746-.895 1.334-1.339 1.766-1.423-.297-2.691-.466-3.805-.508a18.26 18.26 0 0 0-3.062.161c-.357 2.213-.279 4.162.236 5.849.552 1.674 1.282 3.157 2.189 4.449-.083.587-.299 1.28-.649 2.076-.324.81-.724 1.643-1.199 2.5a17.995 17.995 0 0 1-1.461 2.366c-.536.73-1.039 1.306-1.508 1.725-.967-.628-2.034-1.34-3.199-2.134-1.165-.794-2.668-1.668-4.507-2.623-2.038-1.058-3.722-1.885-5.053-2.48a124.242 124.242 0 0 0-3.321-1.441c-.872-.326-1.675-.633-2.41-.92.538-.856 1.025-1.644 1.461-2.364.449-.745.841-1.441 1.175-2.088a28.519 28.519 0 0 0 1.338-2.95 7.965 7.965 0 0 0 .528-2.848c.002-.977-.258-2.059-.78-3.244l-1.737 3.357 1.342.696c-.084.588-.306 1.293-.669 2.114-.324.81-.724 1.643-1.199 2.5a18.28 18.28 0 0 1-1.48 2.403c-.524.706-1.013 1.257-1.47 1.65l-3.721-2.404a68.945 68.945 0 0 0-4.824-2.74c-2.46-1.278-4.518-2.267-6.172-2.968a92.623 92.623 0 0 0-3.996-1.6Z"/>
  <ellipse cx="278.055" cy="123.46" fill="#fff" rx="31.945" ry="32.489"/>
  <path fill="#fff" fill-rule="evenodd" d="M75.8 227.506a117.807 117.807 0 0 1 26.253 5.339c2.6.846 5.165 1.783 7.689 2.804a301.425 301.425 0 0 0-7.809 18.355 13.932 13.932 0 0 0-3.918.142c-1.997.355-3.958 1.131-5.77 2.283a18.577 18.577 0 0 0-4.787 4.435 19.767 19.767 0 0 0-3.077 5.911 18.78 18.78 0 0 0-.9 6.489c.09 2.156.57 4.222 1.417 6.078.847 1.856 2.042 3.468 3.517 4.742a12.768 12.768 0 0 0 3.53 2.163c.04.117.093.231.161.336a1.512 1.512 0 0 0 2.084.436 1.49 1.49 0 0 0 .644-.949c.616-2.865 1.41-5.894 2.232-8.835 3.967-13.886 8.985-27.47 14.951-40.636a115.934 115.934 0 0 1 29.322 18.163c11.487 9.765 20.892 21.656 27.676 34.99a111.78 111.78 0 0 1 9.32 25.665c-33.116 12.166-69.478 20.746-90.976 14.476l-.294-7.316a31.51 31.51 0 0 0 5.473-2.81l1.138-.733a1.5 1.5 0 0 0-1.626-2.522l-1.137.734a28.563 28.563 0 0 1-5.089 2.598l-.215.083a19.025 19.025 0 0 1-4.853-3.726l-.365-.388a1.5 1.5 0 0 0-2.186 2.055l.364.388a22.002 22.002 0 0 0 5.49 4.244l.256 6.366c-7.092-2.747-12.204-7.43-14.53-14.552-6.596-20.216-4.969-52.334 6.016-86.808Zm83.419-118.908c44.457-26.622 106.604-2.855 129.875 45.67 23.268 48.525 4.83 104.282-45.607 130.056-9.313 6.28-25.236 14.632-43.798 22.591a7.11 7.11 0 0 1-.633-2.222c-.311-2.504.373-5.842 2.3-9.963 3.667-7.838 10.685-16.918 21.133-26.693l.019.02 2.194-2.045a49.386 49.386 0 0 1-4.827-5.954c-14.704-20.698-10.085-51.68 8.732-68.878 15.392-14.996 40.073-20.131 59.969-11.042a50.652 50.652 0 0 1 6.917 3.775 50.568 50.568 0 0 0-6.856-3.911c-19.765-9.502-44.911-4.895-60.973 10.163-19.581 17.21-25.276 49.232-10.149 71.49a52.163 52.163 0 0 0 3.016 4.107c-10.654 9.955-17.992 19.364-21.89 27.695-2.043 4.367-2.969 8.308-2.559 11.607.136 1.094.418 2.106.843 3.025a437.019 437.019 0 0 1-15.755 6.275 114.822 114.822 0 0 0-9.482-25.973 115.93 115.93 0 0 0-12.68-19.691c.184-.112.347-.262.469-.444 2.77-4.186 5.483-8.561 8.1-12.912 11.594-19.452 22.136-39.592 29.63-61.054 6.446-20.016 14.902-49.488-7.533-63.207-28.738-12.563-54.776 12.171-73.401 30.867-12.48 13.42-23.044 28.488-32.182 44.312a297.4 297.4 0 0 0-1.587 2.803c14.862-36.319 40.012-73.361 76.715-100.467Zm-31.351 181.817a.538.538 0 0 0-.371.113.725.725 0 0 0-.232.33c-.164.448-.335.884-.512 1.309a27.446 27.446 0 0 1-1.522 3.087 21.677 21.677 0 0 1-.944 1.497 9.787 9.787 0 0 1-1.551 1.76 8.164 8.164 0 0 1-3.252 1.784 8.258 8.258 0 0 1-3.767.119c-1.365-.264-2.702-.849-3.917-1.668a14.031 14.031 0 0 1-2.627-2.313 15.864 15.864 0 0 1-.874-1.068.603.603 0 0 0-.351-.23.549.549 0 0 0-.655.404.6.6 0 0 0 .049.418c.223.442.469.876.737 1.298a14.144 14.144 0 0 0 2.54 3.002c1.27 1.127 2.796 2.035 4.501 2.538 1.588.472 3.334.572 5.008.216 1.675-.351 3.253-1.153 4.546-2.25a11.847 11.847 0 0 0 2.079-2.303 9.801 9.801 0 0 0 1.057-1.987c.506-1.285.737-2.649.713-3.986a10.675 10.675 0 0 0-.137-1.53.717.717 0 0 0-.17-.365.54.54 0 0 0-.348-.175Zm61.783-156.973c19.353 12.707 11.783 40.524 5.236 60.042-7.536 21.145-18.144 41.112-29.791 60.359-2.583 4.233-5.285 8.522-7.981 12.545a117.323 117.323 0 0 0-13.833-13.912 118.848 118.848 0 0 0-30.013-18.604 308.693 308.693 0 0 1 17.9-33.033c14.449-23.024 31.89-44.242 52.293-62.251 1.985-1.731 4.104-3.523 6.189-5.146Zm-72.314 29.507c18.47-18.559 44.909-42.168 71.28-30.145-2.025 1.557-4.04 3.229-5.952 4.861-20.7 17.902-38.442 39.042-53.229 62.078a311.412 311.412 0 0 0-18.414 33.187 120.809 120.809 0 0 0-34.267-8.349c.84-2.527 1.73-5.065 2.672-7.61 1.77-3.42 3.67-6.817 5.616-10.158 9.204-15.699 19.825-30.633 32.294-43.864Z" clip-rule="evenodd"/>
  <path fill="#FFCED5" d="M189.675 133.457c3.993 2.499 7.487 6.498 9.483 10.996 0 0 3.994 7.498 2.496 21.494 0 0-.499 6.997-3.494 16.994 0 0-1.996 7.997-5.99 17.994l-7.487 16.995s-7.487 15.495-11.979 22.992c-1.198 2-9.484 16.185-9.484 15.995 0-.5.998-.5 4.191-46.246 3.194-45.745 22.264-77.214 22.264-77.214Z" style="mix-blend-mode:multiply"/>
  <g filter="url(#a)" style="mix-blend-mode:multiply">
    <ellipse cx="13.042" cy="7.574" fill="#FFCED5" rx="13.042" ry="7.574" transform="rotate(-32.168 581.858 -51.152) skewX(-.072)"/>
  </g>
  <defs>
    <filter id="a" width="43.508" height="38.909" x="109.865" y="281.948" color-interpolation-filters="sRGB" filterUnits="userSpaceOnUse">
      <feFlood flood-opacity="0" result="BackgroundImageFix"/>
      <feBlend in="SourceGraphic" in2="BackgroundImageFix" result="shape"/>
      <feGaussianBlur result="effect1_foregroundBlur_33_3389" stdDeviation="5"/>
    </filter>
  </defs>
</svg>
